<?xml version="1.0" encoding="UTF-8"?>
<svg id="Ebene_1" data-name="Ebene 1" xmlns="http://www.w3.org/2000/svg" viewBox="0 0 500 500">
  <defs>
    <style>
      .cls-1 {
        stroke-width: 0px;
      }
    </style>
  </defs>
  <path class="cls-1" d="m460.52,178.1c11.63,0,21.05-9.43,21.05-21.05h0c0-11.63-9.43-21.05-21.05-21.05h-42.96c-4.3-26.62-24.65-47.86-50.8-53.49v-41.88c0-11.63-9.43-21.05-21.05-21.05h0c-11.63,0-21.05,9.43-21.05,21.05v40.4h-50.29v-40.4c0-11.63-9.43-21.05-21.05-21.05s-21.05,9.43-21.05,21.05v40.4h-50.29v-40.4c0-11.63-9.43-21.05-21.05-21.05s-21.05,9.43-21.05,21.05v40.8c-29.29,3.21-52.77,25.73-57.43,54.57h-42.96c-11.63,0-21.05,9.43-21.05,21.05h0c0,11.63,9.43,21.05,21.05,21.05h42.1v50.29h-42.1c-11.63,0-21.05,9.42-21.05,21.05s9.43,21.05,21.05,21.05h42.1v50.29h-42.1c-11.63,0-21.05,9.43-21.05,21.05s9.43,21.05,21.05,21.05h42.96c4.66,28.83,28.14,51.35,57.43,54.57v41.92c0,11.63,9.43,21.05,21.05,21.05s21.05-9.43,21.05-21.05v-41.52h50.29v41.52c0,11.63,9.43,21.05,21.05,21.05s21.05-9.43,21.05-21.05v-41.52h50.29v41.52c0,11.63,9.43,21.05,21.05,21.05h0c11.63,0,21.05-9.43,21.05-21.05v-43c26.16-5.63,46.5-26.87,50.8-53.49h42.96c11.63,0,21.05-9.43,21.05-21.05s-9.43-21.05-21.05-21.05h-42.11v-50.29h42.11c11.63,0,21.05-9.43,21.05-21.05s-9.43-21.05-21.05-21.05h-42.11v-50.29h42.11Z"/>
</svg>