<?xml version="1.0" encoding="UTF-8"?>
<svg id="Ebene_1" data-name="Ebene 1" xmlns="http://www.w3.org/2000/svg" viewBox="0 0 500 500">
  <defs>
    <style>
      .cls-1 {
        stroke-width: 0px;
      }
    </style>
  </defs>
  <path class="cls-1" d="m243,29.37L4.56,211.37c-8.77,6.7-4.04,20.71,7,20.71h52.15v209.47c0,12.58,10.2,22.78,22.78,22.78h84.94c12.58,0,22.78-10.2,22.78-22.78v-107.66c0-12.58,10.2-22.78,22.78-22.78h65.99c12.58,0,22.78,10.2,22.78,22.78v107.66c0,12.58,10.2,22.78,22.78,22.78h84.94c12.58,0,22.78-10.2,22.78-22.78v-209.47h52.15c11.04,0,15.78-14.01,7-20.71L257,29.37c-4.13-3.16-9.87-3.16-14,0Z"/>
</svg>