<?xml version="1.0" encoding="UTF-8"?>
<svg id="Ebene_1" data-name="Ebene 1" xmlns="http://www.w3.org/2000/svg" viewBox="0 0 500 500">
  <defs>
    <style>
      .cls-1 {
        stroke-width: 0px;
      }
    </style>
  </defs>
  <path class="cls-1" d="m337.75,181.23h-34.68v63.03h37.49c20.39,0,32.1-10.31,32.1-31.4s-12.42-31.63-34.92-31.63Z"/>
  <path class="cls-1" d="m444.67,125.49H55.33c-17.42,0-31.54,14.12-31.54,31.54v152.35c0,17.42,14.12,31.54,31.54,31.54h389.35c17.42,0,31.54-14.12,31.54-31.54v-152.35c0-17.42-14.12-31.54-31.54-31.54Zm-199.95,186.49h-27.88v-68.66h-82.02v68.66h-28.12v-154.19h28.12v63.03h82.02v-63.03h27.88v154.19Zm97.48-47.8h-39.13v47.8h-28.12v-154.19h63.74c38.2,0,60.69,19.21,60.69,53.66s-20.15,52.72-57.18,52.72Z"/>
</svg>