<?xml version="1.0" encoding="UTF-8"?>
<svg id="Ebene_1" data-name="Ebene 1" xmlns="http://www.w3.org/2000/svg" viewBox="0 0 500 500">
  <defs>
    <style>
      .cls-1 {
        stroke-width: 0px;
      }
    </style>
  </defs>
  <path class="cls-1" d="m456.52,130.68s-.09.05-.13.07c-.32-2.08-1.26-4.08-2.86-5.68l-45.71-45.71c-3.99-3.99-10.45-3.99-14.43,0-3.99,3.99-3.99,10.45,0,14.43l15.85,15.85c-5.65,3.5-9.42,9.73-9.42,16.87v41.96c0,10.96,8.89,19.85,19.85,19.85h11.04l-2.53,92.43v.13c-.47,29.53-9.91,90.66-36.09,91.16-.16,0-.32,0-.48,0-24.73,0-31.1-36.74-35.49-74.39-.87-7.42-1.61-13.83-2.62-18.81-6.59-32.45-27.76-50.72-56.59-48.85-3.23.21-6.44.68-9.59,1.35V51.43c0-11.59-9.39-20.98-20.98-20.98H100.76c-11.59,0-20.98,9.39-20.98,20.98v350.07h-18.71c-9.71,0-17.58,7.87-17.58,17.58v32.89c0,9.71,7.87,17.58,17.58,17.58h244.96c9.71,0,17.58-7.87,17.58-17.58v-32.89c0-9.71-7.87-17.58-17.58-17.58h-18.71v-147.2c3.54-1.15,7.25-1.9,11.03-2.15,17.5-1.13,29.03,9.63,33.4,31.11.83,4.06,1.52,10.04,2.33,16.96,1.92,16.45,4.54,38.99,11.73,57.38,11.77,30.15,31.21,36.66,45.78,36.65.31,0,.62,0,.93,0,16.89-.32,39.46-10.97,51.13-59.89,6.17-25.85,6.71-51.17,6.74-53.06l2.78-101.77c2.12-3.16,3.36-6.96,3.36-11.05v-37.8Zm-317.2,48.34c-10.96,0-19.85-8.89-19.85-19.85v-72.58c0-10.96,8.89-19.85,19.85-19.85h88.46c10.96,0,19.85,8.89,19.85,19.85v72.58c0,10.96-8.89,19.85-19.85,19.85h-88.46Z"/>
</svg>