<?xml version="1.0" encoding="UTF-8"?>
<svg id="Ebene_1" data-name="Ebene 1" xmlns="http://www.w3.org/2000/svg" viewBox="0 0 500 500">
  <defs>
    <style>
      .cls-1 {
        stroke-width: 0px;
      }
    </style>
  </defs>
  <path class="cls-1" d="m73.58,199.93h213.4c11.59,33.78,43.65,58.14,81.31,58.14,47.39,0,85.95-38.56,85.95-85.95s-38.56-85.95-85.95-85.95c-37.66,0-69.72,24.36-81.31,58.14H73.58c-15.36,0-27.81,12.45-27.81,27.81s12.45,27.81,27.81,27.81Zm294.7-59.3c17.36,0,31.48,14.12,31.48,31.48s-14.12,31.48-31.48,31.48-31.48-14.12-31.48-31.48,14.12-31.48,31.48-31.48Z"/>
  <path class="cls-1" d="m426.42,300.07h-213.4c-11.59-33.78-43.65-58.14-81.31-58.14-47.39,0-85.95,38.56-85.95,85.95s38.56,85.95,85.95,85.95c37.66,0,69.72-24.36,81.31-58.14h213.4c15.36,0,27.81-12.45,27.81-27.81s-12.45-27.81-27.81-27.81Zm-294.7,59.3c-17.36,0-31.48-14.12-31.48-31.48s14.12-31.48,31.48-31.48,31.48,14.12,31.48,31.48-14.12,31.48-31.48,31.48Z"/>
</svg>