<?xml version="1.0" encoding="UTF-8"?>
<svg id="Ebene_1" data-name="Ebene 1" xmlns="http://www.w3.org/2000/svg" viewBox="0 0 500 500">
  <defs>
    <style>
      .cls-1 {
        stroke-width: 0px;
      }
    </style>
  </defs>
  <path class="cls-1" d="m250,5.52C114.98,5.52,5.52,114.98,5.52,250s109.46,244.48,244.48,244.48,244.48-109.46,244.48-244.48S385.02,5.52,250,5.52Zm18.05,110.08l14.27-46.17c2.19-7.08,9.7-11.05,16.79-8.86l20.52,6.34c7.08,2.19,11.05,9.7,8.86,16.79l-14.27,46.17c-2.19,7.08-9.7,11.05-16.79,8.86l-20.52-6.34c-7.08-2.19-11.05-9.7-8.86-16.79ZM48.65,255.94l1.13-21.45c.39-7.4,6.71-13.09,14.11-12.69l48.25,2.55c7.4.39,13.09,6.71,12.69,14.11l-1.13,21.45c-.39,7.4-6.71,13.09-14.11,12.69l-48.25-2.55c-7.4-.39-13.09-6.71-12.69-14.11Zm95.49,93.63l-41.12,25.38c-6.31,3.89-14.58,1.94-18.47-4.37l-11.28-18.27c-3.89-6.31-1.94-14.58,4.37-18.47l41.12-25.38c6.31-3.89,14.58-1.94,18.47,4.37l11.28,18.27c3.89,6.31,1.94,14.58-4.37,18.47Zm12.88-179.29l-13.15,16.98c-4.54,5.86-12.97,6.94-18.83,2.4l-38.21-29.58c-5.86-4.54-6.94-12.97-2.4-18.83l13.15-16.98c4.54-5.86,12.97-6.94,18.83-2.4l38.21,29.58c5.86,4.54,6.94,12.97,2.4,18.83Zm27.95-40l-14.57-46.07c-2.23-7.07,1.68-14.61,8.75-16.84l20.48-6.47c7.07-2.23,14.61,1.68,16.84,8.75l14.57,46.07c2.23,7.07-1.68,14.61-8.75,16.84l-20.48,6.47c-7.07,2.23-14.61-1.68-16.84-8.75Zm109.04,251.57c-15.05,25.75-48.13,34.42-73.88,19.36-25.75-15.05-34.42-48.13-19.36-73.88,10.43-17.85,29.52-27.48,48.83-26.7l109.78-187.77c5.52-9.44,17.65-12.62,27.09-7.1l9.54,5.58c6.37,3.72,9.87,10.46,9.79,17.35l9.01,11.49c4.58,5.83,3.56,14.27-2.28,18.85l-38.02,29.83c-.47.37-.96.69-1.47.99l-79.73,136.36c10.15,16.45,11.12,37.81.68,55.65Zm133.34-30.7l-11.16,18.35c-3.85,6.33-12.11,8.34-18.44,4.49l-41.28-25.11c-6.33-3.85-8.34-12.11-4.49-18.44l11.16-18.35c3.85-6.33,12.11-8.34,18.44-4.49l41.28,25.11c6.33,3.85,8.34,12.11,4.49,18.44Zm11.39-82.33l-48.24,2.87c-7.4.44-13.76-5.2-14.2-12.6l-1.27-21.44c-.44-7.4,5.2-13.76,12.6-14.2l48.24-2.87c7.4-.44,13.76,5.2,14.2,12.6l1.27,21.44c.44,7.4-5.2,13.76-12.6,14.2Z"/>
</svg>