<?xml version="1.0" encoding="UTF-8"?>
<svg id="Ebene_1" data-name="Ebene 1" xmlns="http://www.w3.org/2000/svg" viewBox="0 0 500 500">
  <defs>
    <style>
      .cls-1 {
        stroke-width: 0px;
      }
    </style>
  </defs>
  <rect class="cls-1" x="420.04" y="197.92" width="71.32" height="195.13" rx="19.81" ry="19.81"/>
  <path class="cls-1" d="m387.33,227.53l-54.68-54.68c-5.4-5.4-12.73-8.44-20.37-8.44h-56.66v-25.26h59.76c7.48,0,13.54-6.06,13.54-13.54v-11.23c0-7.48-6.06-13.54-13.54-13.54h-153.86c-7.48,0-13.54,6.06-13.54,13.54v11.23c0,7.48,6.06,13.54,13.54,13.54h59.76v25.26h-109.7c-15.91,0-28.81,12.9-28.81,28.81v33.76h-37.8v-60.42c0-5.65-4.58-10.24-10.24-10.24h-15.85c-5.65,0-10.24,4.58-10.24,10.24v159.8c0,5.65,4.58,10.24,10.24,10.24h15.85c5.65,0,10.24-4.58,10.24-10.24v-60.42h37.8v47.3c0,15.91,12.9,28.81,28.81,28.81h24.98c10.77,0,20.63,6,25.58,15.57l13.45,25.99c4.95,9.56,14.82,15.57,25.58,15.57h165.78c15.91,0,28.81-12.9,28.81-28.81v-122.45c0-7.64-3.03-14.97-8.44-20.37Zm-235.56,50.29c-14.04,0-25.42-11.38-25.42-25.42s11.38-25.42,25.42-25.42,25.42,11.38,25.42,25.42-11.38,25.42-25.42,25.42Zm72.8,0c-14.04,0-25.42-11.38-25.42-25.42s11.38-25.42,25.42-25.42,25.42,11.38,25.42,25.42-11.38,25.42-25.42,25.42Zm72.8,0c-14.04,0-25.42-11.38-25.42-25.42s11.38-25.42,25.42-25.42,25.42,11.38,25.42,25.42-11.38,25.42-25.42,25.42Z"/>
</svg>